<svg xmlns="http://www.w3.org/2000/svg" xmlns:xlink="http://www.w3.org/1999/xlink" viewBox="0 0 64 64" id="dog"><defs><linearGradient id="c" x1="31.98" x2="31.98" y1="7" y2="61" gradientUnits="userSpaceOnUse"><stop offset="0" stop-color="#ffc033"></stop><stop offset="1" stop-color="#ef8e2e"></stop></linearGradient><linearGradient id="a" x1="13.5" x2="13.5" y1="3" y2="43" gradientUnits="userSpaceOnUse"><stop offset="0" stop-color="#ce7f20"></stop><stop offset="1" stop-color="#b2500d"></stop></linearGradient><linearGradient id="d" x1="50.5" x2="50.5" y2="43" xlink:href="#a"></linearGradient><linearGradient id="b" x1="32" x2="32" y1="47" y2="61" gradientUnits="userSpaceOnUse"><stop offset="0" stop-color="#002237"></stop><stop offset="1" stop-color="#003352"></stop></linearGradient><linearGradient id="e" x1="24" x2="24" y1="22" y2="33" xlink:href="#b"></linearGradient><linearGradient id="f" x1="40" x2="40" y1="22" y2="33" xlink:href="#b"></linearGradient></defs><path fill="url(#c)" d="M41.46 7.09a1 1 0 0 0-.41-.09H23a1 1 0 0 0-.7.29c-7 6.88-10 14.08-9.25 21.92V36a9 9 0 0 0 6 8.48V52a9 9 0 0 0 9 9h8a9 9 0 0 0 9-9v-7.52A9 9 0 0 0 51 36v-6.62c.41-8.71-.41-18.16-9.54-22.29Z"></path><path fill="url(#a)" d="M20.25 3h-8.08C6.46 3 3 16.2 3 22c0 10.91.69 21 5.67 21s5.37-4.4 5.8-9 1-10.48 5.44-15.27c2.88-3.09 5.12-8.26 3.62-12.86C22.92 4 21.81 3 20.25 3Z"></path><path fill="url(#d)" d="M51.83 3h-8.08c-1.56 0-2.67 1-3.28 2.82-1.5 4.6.74 9.77 3.62 12.86 4.47 4.79 5 10.6 5.44 15.27s.83 9 5.8 9S61 32.91 61 22c0-5.8-3.46-19-9.17-19Z"></path><path fill="url(#b)" d="M32 47c-1 0-6 .14-6 3 0 2.39 2.73 4.39 5 4.88V61h2v-6.12c2.27-.49 5-2.49 5-4.88 0-2.86-5-3-6-3Z"></path><ellipse cx="24" cy="27.5" fill="url(#e)" rx="3.5" ry="5.5"></ellipse><ellipse cx="40" cy="27.5" fill="url(#f)" rx="3.5" ry="5.5"></ellipse></svg>